<svg xmlns="http://www.w3.org/2000/svg" xmlns:xlink="http://www.w3.org/1999/xlink" viewBox="0 0 299.16 324.5"><defs><style>.cls-1{fill:#0068ff;}.cls-2{fill:url(#linear-gradient);}.cls-3{fill:#002b8b;}</style><linearGradient id="linear-gradient" x1="109.71" y1="111.87" x2="180.92" y2="111.87" gradientUnits="userSpaceOnUse"><stop offset="0" stop-color="#002b8b"/><stop offset="1" stop-color="#002b8b" stop-opacity="0"/></linearGradient></defs><title>Shapesync</title><g id="Layer_2" data-name="Layer 2"><g id="Layer_1-2" data-name="Layer 1"><path class="cls-1" d="M228,119q-14.17-16.67-45.69-24.55l-33.94-8.33q-30.76-7.88-38.64-15.23c-4.54-4.14-7.88-12-7.88-21.44q0-15.46,11.44-23.26t33.87-7.81q27.42,0,42.28,10.83t19.24,34.17H227.9v-50a358.52,358.52,0,0,0-44.47-10A269.14,269.14,0,0,0,142.13,0Q101.82,0,79.47,18.71T57.12,71.07q0,27.88,13.49,43t46.67,23.56l33.94,8.33q16.05,4,25.36,8.43l1,.52c.43.22.83.43,1.24.65a41.77,41.77,0,0,1,5.38,3.4c.47.36,1,.72,1.37,1.09Q194,167.6,194,181.24q0,17.27-12.27,26.22t-35.76,8.94q-28.94,0-45.31-12.58t-20.76-38H60.61v53.64A290.55,290.55,0,0,0,105,230.94,256.59,256.59,0,0,0,149,234.73q45.91,0,69.55-17.81t23.64-52.05Q242.14,135.63,228,119Z"/><path class="cls-2" d="M109.71,70.84c35.92,32.78,48.22,47.5,71.22,82.06V94.07l-32.58-8Q117.58,78.19,109.71,70.84Z"/><path class="cls-3" d="M.47,310.83V302l3,0q.13,4.41,2.56,6.53t7.38,2.11q4.62,0,7-1.83a6.27,6.27,0,0,0,2.43-5.33,5.92,5.92,0,0,0-1.47-4.31q-1.47-1.5-6.19-2.93l-5.11-1.53q-5.55-1.69-7.82-4.2A9.93,9.93,0,0,1,0,283.63,9.14,9.14,0,0,1,3.5,276q3.5-2.72,9.83-2.72a33.37,33.37,0,0,1,5.92.58,59.83,59.83,0,0,1,6.85,1.7v8.25H23.17q-.44-4.1-2.74-5.93t-7-1.83q-4.1,0-6.24,1.67a6.65,6.65,0,0,0-.53,9.22q1.61,1.58,6.82,3.14l4.8,1.43q5.27,1.58,7.51,4A9.36,9.36,0,0,1,28,302.11q0,5.63-3.61,8.49T13.7,313.45a33.72,33.72,0,0,1-6.5-.65A40.06,40.06,0,0,1,.47,310.83Z"/><path class="cls-3" d="M36.25,312.7v-2.75h4.31V275.07H36v-2.75h9.34V290a10.19,10.19,0,0,1,3.44-4.23,8.58,8.58,0,0,1,4.92-1.43q4.57,0,6.72,2.62t2.15,8.17v14.79h4.26v2.75H53.63v-2.75h4.13V296.66q0-5.06-1.23-6.92t-4.4-1.86a5.84,5.84,0,0,0-5.06,2.41q-1.74,2.41-1.74,7v12.61h4.15v2.75Z"/><path class="cls-3" d="M96.34,295.47v14.48h4.26v2.75h-9v-3a9.83,9.83,0,0,1-3.66,2.83,12,12,0,0,1-4.85.91A10.47,10.47,0,0,1,75.76,311a8.44,8.44,0,0,1-2.7-6.59,7.88,7.88,0,0,1,3.09-6.64q3.09-2.36,8.72-2.36h6.69v-1.89a6.23,6.23,0,0,0-1.91-4.87,7.7,7.7,0,0,0-5.36-1.73,7.26,7.26,0,0,0-4.54,1.3,5.79,5.79,0,0,0-2.1,3.84H75.19v-5.58a28.23,28.23,0,0,1,4.84-1.6,20.7,20.7,0,0,1,4.58-.53q5.73,0,8.73,2.84T96.34,295.47ZM91.57,304v-5.84H85.42a7.83,7.83,0,0,0-5.29,1.53,5.93,5.93,0,0,0-1.74,4.7A6,6,0,0,0,80.15,309a6.62,6.62,0,0,0,4.77,1.69A6.3,6.3,0,0,0,91.57,304Z"/><path class="cls-3" d="M110.35,287.89h-4.59v-2.78h9.37v4.31a9.37,9.37,0,0,1,3.57-3.83,10.7,10.7,0,0,1,5.36-1.23,10.15,10.15,0,0,1,8.3,4q3.22,4,3.22,10.51t-3.22,10.52a10.14,10.14,0,0,1-8.3,4,10.69,10.69,0,0,1-5.36-1.23,9.36,9.36,0,0,1-3.57-3.83V321h4.52v2.78H105.76V321h4.59Zm4.77,9.65v2.72q0,5,1.91,7.59a6.44,6.44,0,0,0,5.54,2.61,6.17,6.17,0,0,0,5.54-2.93q1.88-2.93,1.88-8.64t-1.88-8.64a6.18,6.18,0,0,0-5.54-2.91A6.43,6.43,0,0,0,117,290Q115.12,292.59,115.12,297.54Z"/><path class="cls-3" d="M169.17,299.41H148.6v.21q0,5.58,2.1,8.42a7.23,7.23,0,0,0,6.2,2.84,7.87,7.87,0,0,0,5.15-1.65,8.85,8.85,0,0,0,2.81-4.89h3.84a11.68,11.68,0,0,1-4.22,6.82,13.22,13.22,0,0,1-8.08,2.28,12.59,12.59,0,0,1-9.72-4q-3.67-4-3.67-10.57t3.61-10.53a12.15,12.15,0,0,1,9.47-4q6.25,0,9.6,3.85T169.17,299.41Zm-5.63-2.75q-.16-4.83-2-7.28a6.41,6.41,0,0,0-5.41-2.45,6.19,6.19,0,0,0-5.19,2.47q-1.9,2.47-2.31,7.26Z"/><path class="cls-3" d="M176.93,311.16v-6.43h2.75a6,6,0,0,0,1.93,4.62,8.24,8.24,0,0,0,5.41,1.53,8.37,8.37,0,0,0,4.9-1.21,4.05,4.05,0,0,0,1.69-3.52,3.77,3.77,0,0,0-1.23-2.93,15.71,15.71,0,0,0-5.2-2.39l-3.45-1.17a12,12,0,0,1-5.15-2.85,6.14,6.14,0,0,1-1.6-4.36,7.1,7.1,0,0,1,2.78-5.94q2.77-2.15,7.68-2.15a20,20,0,0,1,4.59.57,31.15,31.15,0,0,1,5,1.66v6h-2.75a5.5,5.5,0,0,0-1.87-4.18,7.16,7.16,0,0,0-4.8-1.5A8,8,0,0,0,183,288a3.62,3.62,0,0,0-1.54,3.19,3.57,3.57,0,0,0,1.17,2.79,13.56,13.56,0,0,0,4.67,2.14l3.79,1.17a13,13,0,0,1,5.64,3,6.59,6.59,0,0,1,1.73,4.71,7.28,7.28,0,0,1-3,6.16q-3,2.24-8.26,2.25a23.79,23.79,0,0,1-5.22-.57A26.53,26.53,0,0,1,176.93,311.16Z"/><path class="cls-3" d="M214.81,317.76l1.82-4.59-10.3-25.27h-3.14v-2.78h12.69v2.78h-4.41l7.76,19,7.76-19h-4.13v-2.78h10.35v2.78h-3.09l-12.64,31a10.17,10.17,0,0,1-2.88,4.4,7.35,7.35,0,0,1-4.46,1.18,15.67,15.67,0,0,1-2.51-.21,20.13,20.13,0,0,1-2.58-.6v-5.27h2.44a4.12,4.12,0,0,0,.9,2.53,3.06,3.06,0,0,0,2.29.77,3.28,3.28,0,0,0,2.3-.79A9.11,9.11,0,0,0,214.81,317.76Z"/><path class="cls-3" d="M237.67,312.7v-2.75H242V287.89h-4.57v-2.78h9.34V290a10.19,10.19,0,0,1,3.44-4.23,8.58,8.58,0,0,1,4.92-1.43q4.57,0,6.72,2.62t2.15,8.17v14.79h4.25v2.75H255.05v-2.75h4.13V296.66q0-5.06-1.25-6.94t-4.38-1.88a5.84,5.84,0,0,0-5.06,2.43q-1.74,2.43-1.74,7.07v12.61h4.15v2.75Z"/><path class="cls-3" d="M299.16,304.42a10.69,10.69,0,0,1-11.34,9,12.51,12.51,0,0,1-9.68-4q-3.66-4-3.66-10.57t3.66-10.57a12.55,12.55,0,0,1,9.68-4A22.73,22.73,0,0,1,293,285a26.1,26.1,0,0,1,5.22,1.86v7.06h-2.78a8.66,8.66,0,0,0-2.37-5.29,7.51,7.51,0,0,0-5.23-1.66,6.54,6.54,0,0,0-5.84,3q-2,3-2,9t2,9a6.52,6.52,0,0,0,5.85,3,7.23,7.23,0,0,0,4.93-1.61,8.51,8.51,0,0,0,2.52-4.85Z"/></g></g></svg>